<svg width="22" height="19" viewBox="0 0 22 19" fill="none" xmlns="http://www.w3.org/2000/svg">
<path d="M8.76094 11.3668C8.18594 10.7928 7.83594 10.0128 7.83594 9.1378C7.83594 7.3848 9.24794 5.9718 10.9999 5.9718C11.8669 5.9718 12.6649 6.3228 13.2299 6.8968" stroke="#A4A4A4" stroke-width="2" stroke-linecap="round" stroke-linejoin="round"/>
<path d="M14.1054 9.69897C13.8734 10.989 12.8574 12.007 11.5684 12.241" stroke="#A4A4A4" stroke-width="2" stroke-linecap="round" stroke-linejoin="round"/>
<path d="M5.655 14.4724C4.068 13.2264 2.724 11.4064 1.75 9.13735C2.734 6.85835 4.087 5.02835 5.684 3.77235C7.271 2.51635 9.102 1.83435 11 1.83435C12.909 1.83435 14.739 2.52635 16.336 3.79135" stroke="#A4A4A4" stroke-width="2" stroke-linecap="round" stroke-linejoin="round"/>
<path d="M18.4478 5.99084C19.1358 6.90484 19.7408 7.95984 20.2498 9.13684C18.2828 13.6938 14.8068 16.4388 10.9998 16.4388C10.1368 16.4388 9.28577 16.2988 8.46777 16.0258" stroke="#A4A4A4" stroke-width="2" stroke-linecap="round" stroke-linejoin="round"/>
<path d="M18.8873 1.24963L3.11328 17.0236" stroke="#A4A4A4" stroke-width="2" stroke-linecap="round" stroke-linejoin="round"/>
</svg>
