<svg width="18" height="18" viewBox="0 0 18 18" fill="none" xmlns="http://www.w3.org/2000/svg">
<path d="M8.95572 7.35598V10.807H13.7477C13.3017 13 11.4347 14.26 8.95572 14.26C6.06826 14.2202 3.74838 11.8682 3.74838 8.98048C3.74838 6.09275 6.06826 3.74072 8.95572 3.70098C10.1559 3.69954 11.3192 4.11605 12.2457 4.87898L14.8457 2.27898C11.8633 -0.342952 7.50772 -0.680185 4.15727 1.45142C0.806827 3.58303 -0.733259 7.67119 0.377966 11.4836C1.48919 15.296 4.98466 17.9164 8.95572 17.914C13.4227 17.914 17.4847 14.665 17.4847 8.97998C17.4778 8.43262 17.4108 7.88768 17.2847 7.35498L8.95572 7.35598Z" fill="#111112"/>
</svg>
