<svg width="21" height="21" viewBox="0 0 21 21" fill="none" xmlns="http://www.w3.org/2000/svg">
<path fill-rule="evenodd" clip-rule="evenodd" d="M15.3195 3.80723C13.9824 2.8448 12.3876 2.30485 10.7408 2.25697C9.09393 2.2091 7.47049 2.65548 6.07964 3.53859C4.6888 4.42171 3.59428 5.7011 2.93712 7.21189C2.27997 8.72269 2.0903 10.3957 2.39255 12.0152C2.44234 12.3062 2.37578 12.6051 2.20721 12.8474C2.03864 13.0898 1.78157 13.2561 1.49145 13.3106C1.20132 13.3652 0.901398 13.3035 0.656353 13.1389C0.411307 12.9743 0.240779 12.7199 0.181548 12.4307C-0.209344 10.3388 0.0447661 8.17741 0.910193 6.23315C1.77562 4.2889 3.21149 2.65357 5.02748 1.54393C6.84347 0.4343 8.9538 -0.0972317 11.0787 0.0197959C13.2037 0.136824 15.2429 0.896884 16.926 2.19923L17.844 1.28123C17.9489 1.17616 18.0825 1.10454 18.228 1.07544C18.3735 1.04635 18.5244 1.06107 18.6615 1.11776C18.7987 1.17445 18.9159 1.27056 18.9985 1.39391C19.081 1.51727 19.125 1.66232 19.125 1.81073V5.25023C19.125 5.44914 19.046 5.6399 18.9054 5.78056C18.7647 5.92121 18.574 6.00023 18.375 6.00023H14.9355C14.7875 5.9999 14.6428 5.95574 14.5197 5.8733C14.3967 5.79087 14.3008 5.67386 14.2442 5.53702C14.1876 5.40018 14.1727 5.24963 14.2015 5.10436C14.2303 4.9591 14.3015 4.82561 14.406 4.72073L15.3195 3.80723ZM19.506 7.67273C19.7992 7.61743 20.1024 7.68087 20.3488 7.84909C20.5952 8.01731 20.7647 8.27653 20.82 8.56973C21.2113 10.6619 20.9573 12.8236 20.0919 14.7682C19.2264 16.7128 17.7903 18.3484 15.974 19.4581C14.1577 20.5678 12.047 21.0993 9.92179 20.9819C7.79655 20.8646 5.75717 20.1041 4.07405 18.8012L3.15605 19.7207C3.05115 19.8259 2.9174 19.8975 2.77173 19.9266C2.62607 19.9556 2.47506 19.9408 2.33785 19.8839C2.20064 19.827 2.08341 19.7307 2.00102 19.6071C1.91862 19.4835 1.87478 19.3383 1.87505 19.1897V15.7502C1.87505 15.5513 1.95407 15.3605 2.09472 15.2199C2.23537 15.0792 2.42614 15.0002 2.62505 15.0002H6.06455C6.21308 15 6.35834 15.0438 6.48193 15.1262C6.60551 15.2086 6.70185 15.3258 6.75872 15.463C6.8156 15.6002 6.83046 15.7513 6.80141 15.8969C6.77236 16.0426 6.70071 16.1763 6.59555 16.2812L5.68055 17.1947C7.01774 18.1572 8.6125 18.6971 10.2593 18.745C11.9062 18.7929 13.5296 18.3465 14.9205 17.4634C16.3113 16.5802 17.4058 15.3009 18.063 13.7901C18.7201 12.2793 18.9098 10.6063 18.6075 8.98673C18.5802 8.84134 18.5818 8.69199 18.6123 8.54722C18.6427 8.40245 18.7014 8.2651 18.785 8.14305C18.8686 8.021 18.9755 7.91663 19.0994 7.83593C19.2234 7.75522 19.3621 7.69976 19.5075 7.67273H19.506ZM11.4405 5.48573C11.4405 5.18736 11.322 4.90121 11.111 4.69023C10.9001 4.47925 10.6139 4.36073 10.3155 4.36073C10.0172 4.36073 9.73103 4.47925 9.52005 4.69023C9.30907 4.90121 9.19055 5.18736 9.19055 5.48573V6.00023C8.60411 6.09725 8.06982 6.39564 7.67962 6.84404C7.28941 7.29244 7.06769 7.86282 7.05259 8.45704C7.0375 9.05125 7.22998 9.63215 7.59691 10.0998C7.96385 10.5674 8.48229 10.8925 9.06305 11.0192L10.953 11.4317C11.0651 11.4602 11.1632 11.5281 11.2292 11.623C11.2952 11.718 11.3247 11.8335 11.3123 11.9485C11.2999 12.0635 11.2464 12.1701 11.1616 12.2488C11.0769 12.3274 10.9666 12.3729 10.851 12.3767H9.78005C9.68146 12.3764 9.58538 12.3456 9.50487 12.2887C9.42436 12.2318 9.36332 12.1515 9.33005 12.0587C9.2808 11.9194 9.20459 11.7911 9.10576 11.6811C9.00693 11.5712 8.88742 11.4819 8.75405 11.4181C8.62068 11.3544 8.47607 11.3176 8.32847 11.3098C8.18086 11.3019 8.03316 11.3232 7.8938 11.3725C7.75443 11.4217 7.62613 11.4979 7.51622 11.5968C7.40631 11.6956 7.31694 11.8151 7.25322 11.9485C7.18949 12.0818 7.15266 12.2265 7.14482 12.3741C7.13699 12.5217 7.1583 12.6694 7.20755 12.8087C7.36189 13.2453 7.62474 13.6354 7.97137 13.9424C8.31801 14.2495 8.73703 14.4633 9.18905 14.5637V15.1067C9.18905 15.4051 9.30757 15.6912 9.51855 15.9022C9.72953 16.1132 10.0157 16.2317 10.314 16.2317C10.6124 16.2317 10.8986 16.1132 11.1095 15.9022C11.3205 15.6912 11.439 15.4051 11.439 15.1067V14.5637C12.045 14.4279 12.5865 14.0896 12.9743 13.6046C13.362 13.1196 13.5729 12.5169 13.572 11.896C13.5711 11.275 13.3586 10.6729 12.9695 10.189C12.5803 9.70511 12.0379 9.36832 11.4315 9.23423L9.54155 8.82023C9.46821 8.80369 9.40353 8.76073 9.35984 8.69955C9.31615 8.63837 9.29652 8.56325 9.30468 8.48851C9.31284 8.41378 9.34822 8.34466 9.40408 8.29435C9.45994 8.24404 9.53237 8.21605 9.60755 8.21573H10.8495C10.9481 8.2161 11.0442 8.24683 11.1247 8.30372C11.2052 8.36062 11.2663 8.44092 11.2995 8.53373C11.399 8.81519 11.6062 9.04561 11.8755 9.17431C12.0089 9.23803 12.1535 9.27486 12.3011 9.2827C12.4487 9.29053 12.5964 9.26922 12.7358 9.21998C12.8752 9.17073 13.0035 9.09452 13.1134 8.99569C13.2233 8.89686 13.3127 8.77735 13.3764 8.64398C13.4401 8.51061 13.4769 8.366 13.4848 8.21839C13.4926 8.07079 13.4713 7.92309 13.422 7.78373C13.2676 7.34698 13.0045 6.95672 12.6576 6.64969C12.3107 6.34267 11.8913 6.12897 11.439 6.02873V5.48873L11.4405 5.48573Z" fill="#3DB2FF"/>
</svg>
