<svg width="70" height="70" viewBox="0 0 70 70" fill="none" xmlns="http://www.w3.org/2000/svg">
<circle cx="35" cy="35" r="35" fill="#F22727"/>
<path d="M35.5003 29.667C38.3684 29.667 41.1941 30.2445 43.9776 31.3995C46.7611 32.5545 49.2339 34.286 51.3962 36.5941C51.6878 36.8857 51.8337 37.226 51.8337 37.6149C51.8337 38.0038 51.6878 38.3441 51.3962 38.6357L48.042 41.917C47.7746 42.1844 47.4645 42.3302 47.1116 42.3545C46.7587 42.3788 46.4369 42.2816 46.1462 42.0628L41.917 38.8545C41.7225 38.7087 41.5767 38.5385 41.4795 38.3441C41.3823 38.1496 41.3337 37.9309 41.3337 37.6878V33.5316C40.41 33.2399 39.4621 33.009 38.4899 32.8389C37.5177 32.6687 36.5212 32.5837 35.5003 32.5837C34.4795 32.5837 33.483 32.6687 32.5107 32.8389C31.5385 33.009 30.5906 33.2399 29.667 33.5316V37.6878C29.667 37.9309 29.6184 38.1496 29.5212 38.3441C29.4239 38.5385 29.2781 38.7087 29.0837 38.8545L24.8545 42.0628C24.5628 42.2816 24.2405 42.3788 23.8876 42.3545C23.5347 42.3302 23.225 42.1844 22.9587 41.917L19.6045 38.6357C19.3128 38.3441 19.167 38.0038 19.167 37.6149C19.167 37.226 19.3128 36.8857 19.6045 36.5941C21.7434 34.285 24.2104 32.5535 27.0055 31.3995C29.8007 30.2455 32.6323 29.668 35.5003 29.667Z" fill="white"/>
</svg>
