<svg width="227" height="227" viewBox="0 0 227 227" fill="none" xmlns="http://www.w3.org/2000/svg">
<circle cx="113.5" cy="113.5" r="54.3434" fill="#3DB2FF" stroke="#3DB2FF" stroke-width="1.37374"/>
<circle opacity="0.5" cx="113.5" cy="113.5" r="66.9546" stroke="#3DB2FF" stroke-width="1.37374"/>
<circle opacity="0.25" cx="113.5" cy="113.5" r="87.5909" stroke="#3DB2FF" stroke-width="1.37374"/>
<circle opacity="0.1" cx="113.5" cy="113.5" r="112.813" stroke="#3DB2FF" stroke-width="1.37374"/>
<rect x="92.4046" y="92.4039" width="42.1919" height="42.1919" stroke="#3DB2FF" stroke-width="1.37374"/>
<path d="M113.5 97.1627C110.493 97.1627 108.055 99.6008 108.055 102.608V111.685C108.055 114.692 110.493 117.13 113.5 117.13C116.508 117.13 118.946 114.692 118.946 111.685V102.608C118.946 99.6008 116.508 97.1627 113.5 97.1627ZM115.315 127.922V130.745C115.315 131.747 114.503 132.56 113.5 132.56C112.498 132.56 111.685 131.747 111.685 130.745V127.922C103.517 127.019 97.1631 120.094 97.1631 111.685C97.1631 110.682 97.9758 109.869 98.9783 109.869C99.9808 109.869 100.794 110.682 100.794 111.685C100.794 118.702 106.483 124.391 113.5 124.391C120.518 124.391 126.207 118.702 126.207 111.685C126.207 110.682 127.02 109.869 128.022 109.869C129.025 109.869 129.837 110.682 129.837 111.685C129.837 120.094 123.484 127.019 115.315 127.922ZM113.5 93.5322C118.513 93.5322 122.576 97.5958 122.576 102.608V111.685C122.576 116.697 118.513 120.761 113.5 120.761C108.488 120.761 104.424 116.697 104.424 111.685V102.608C104.424 97.5958 108.488 93.5322 113.5 93.5322Z" fill="#010101"/>
</svg>
