<svg width="20" height="20" viewBox="0 0 20 20" fill="none" xmlns="http://www.w3.org/2000/svg">
<path fill-rule="evenodd" clip-rule="evenodd" d="M10.0003 18.3334C5.39783 18.3334 1.66699 14.6026 1.66699 10.0001C1.66699 5.39758 5.39783 1.66675 10.0003 1.66675C14.6028 1.66675 18.3337 5.39758 18.3337 10.0001C18.3337 14.6026 14.6028 18.3334 10.0003 18.3334ZM10.0003 17.3334C11.9452 17.3334 13.8105 16.5608 15.1858 15.1855C16.561 13.8103 17.3337 11.945 17.3337 10.0001C17.3337 8.05516 16.561 6.1899 15.1858 4.81463C13.8105 3.43936 11.9452 2.66675 10.0003 2.66675C8.0554 2.66675 6.19014 3.43936 4.81488 4.81463C3.43961 6.1899 2.66699 8.05516 2.66699 10.0001C2.66699 11.945 3.43961 13.8103 4.81488 15.1855C6.19014 16.5608 8.0554 17.3334 10.0003 17.3334ZM10.257 14.0067C10.7843 13.4814 11.2025 12.8569 11.4874 12.1693C11.7723 11.4816 11.9183 10.7444 11.917 10.0001C11.917 8.47508 11.3137 7.05008 10.257 5.99341L10.9645 5.28591C11.5843 5.90445 12.0758 6.6393 12.4109 7.44828C12.7459 8.25726 12.9179 9.12445 12.917 10.0001C12.917 11.8417 12.1712 13.5084 10.9645 14.7142L10.257 14.0067ZM8.60699 12.3567C8.91728 12.0478 9.16334 11.6806 9.33097 11.2761C9.49859 10.8716 9.58448 10.4379 9.58366 10.0001C9.58448 9.56224 9.49859 9.12857 9.33097 8.72409C9.16334 8.31961 8.91728 7.95232 8.60699 7.64341L9.31449 6.93591C9.71762 7.33776 10.0373 7.81537 10.2551 8.34124C10.4729 8.86712 10.5846 9.43088 10.5837 10.0001C10.5846 10.5693 10.4729 11.133 10.2551 11.6589C10.0373 12.1848 9.71762 12.6624 9.31449 13.0642L8.60699 12.3567ZM7.66533 11.4151L6.25033 10.0001L7.66449 8.58592C8.02616 8.94758 8.25033 9.44758 8.25033 10.0001C8.25033 10.5526 8.02616 11.0526 7.66449 11.4142L7.66533 11.4151Z" fill="white"/>
</svg>
