<svg width="361" height="78" viewBox="0 0 361 78" fill="none" xmlns="http://www.w3.org/2000/svg">
<path d="M11.5 71.5H94" stroke="white"/>
<path d="M129 6.5H347" stroke="white"/>
<path d="M0 59.8175V10.2233V7.95918C0 3.56345 4.02053 0 8.98011 0H97.5408C102.78 0 107.807 1.83767 111.523 5.11165C115.239 8.38563 120.266 10.2233 125.506 10.2233H352.02C356.979 10.2233 361 13.7868 361 18.1825V70.0408C361 74.4366 356.979 78 352.02 78H125.506C120.266 78 115.239 76.1623 111.523 72.8883C107.807 69.6144 102.78 67.7767 97.5408 67.7767H8.9801C4.02053 67.7767 0 64.2133 0 59.8175Z" fill="url(#paint0_linear_37_986)"/>
<defs>
<linearGradient id="paint0_linear_37_986" x1="0" y1="39" x2="361" y2="39" gradientUnits="userSpaceOnUse">
<stop offset="0.505" stop-color="white" stop-opacity="0.2"/>
<stop offset="1" stop-color="#C3C2C2" stop-opacity="0.5"/>
</linearGradient>
</defs>
</svg>
