<svg width="31" height="31" viewBox="0 0 31 31" fill="none" xmlns="http://www.w3.org/2000/svg">
<rect x="0.5" y="0.5" width="30" height="30" rx="15" fill="url(#paint0_linear_18_15344)" style="mix-blend-mode:overlay"/>
<rect x="0.5" y="0.5" width="30" height="30" rx="15" stroke="url(#paint1_linear_18_15344)" style="mix-blend-mode:overlay"/>
<path d="M9.8385 24L10.281 23.9035C10.419 23.8748 10.557 23.847 10.695 23.82C10.9055 23.7785 11.1195 23.7365 11.3305 23.698C11.492 23.6695 11.651 23.6435 11.8125 23.612L11.8485 23.6015C12.015 23.573 12.18 23.5415 12.3465 23.5235L13.156 23.4035V8H13.1275C12.7093 8.00259 12.2911 8.01042 11.873 8.0235C11.4115 8.037 10.943 8.063 10.4825 8.094C10.2845 8.1065 10.084 8.1255 9.883 8.1405H9.8545V23.9945L9.8385 24ZM13.94 8.0105V23.3045C14.5125 23.2368 15.0865 23.1821 15.6615 23.1405C17.0755 23.0341 18.494 23.0002 19.9115 23.039C20.6618 23.063 21.411 23.1063 22.159 23.169V9.0025C21.4902 8.84848 20.8173 8.71309 20.141 8.5965C18.8282 8.37199 17.5056 8.20931 16.1775 8.109C15.4337 8.05508 14.6886 8.02223 13.943 8.0105H13.94ZM21.1175 17.8745L21.086 17.8725L20.7105 17.8305C19.7782 17.7339 18.8428 17.6697 17.906 17.638C16.968 17.6104 16.0293 17.6139 15.0915 17.6485H15.063C15.0315 17.6485 15.003 17.6485 14.9715 17.638C14.9048 17.621 14.8437 17.5871 14.794 17.5395C14.7379 17.4819 14.7013 17.4083 14.6892 17.3288C14.6771 17.2494 14.6901 17.1681 14.7265 17.0965C14.7445 17.068 14.768 17.0285 14.794 17.008C14.8232 16.9807 14.8556 16.9571 14.8905 16.9375C14.932 16.9195 14.971 16.909 15.0105 16.899H15.07C15.2005 16.899 15.3305 16.8885 15.4505 16.8885C16.3766 16.8649 17.3033 16.8709 18.229 16.9065C19.1895 16.9485 20.1405 17.0185 21.0885 17.128L21.19 17.1385C21.2185 17.149 21.2475 17.149 21.2785 17.1565C21.3485 17.188 21.4085 17.227 21.4505 17.279C21.479 17.3075 21.497 17.347 21.518 17.3885C21.5384 17.4252 21.5493 17.4665 21.5495 17.5085C21.554 17.5634 21.5466 17.6186 21.5277 17.6703C21.5088 17.722 21.4789 17.769 21.44 17.808C21.4085 17.8395 21.3775 17.8575 21.3485 17.878C21.318 17.8995 21.2785 17.9065 21.239 17.9175C21.2185 17.928 21.2075 17.928 21.1795 17.928H21.148L21.1175 17.8745ZM21.1405 16.068C21.109 16.068 21.109 16.068 21.078 16.0625L20.708 16.015C19.7797 15.8955 18.8466 15.8156 17.9115 15.7755C16.9757 15.7272 16.0383 15.7141 15.1015 15.736L15.07 15.726C15.0415 15.7155 15.0105 15.7155 14.982 15.7055C14.9164 15.6854 14.8578 15.6475 14.8125 15.596C14.792 15.5645 14.7605 15.5255 14.7525 15.4965C14.7263 15.4419 14.7134 15.3818 14.7148 15.3213C14.7162 15.2607 14.7318 15.2014 14.7605 15.148C14.7784 15.1106 14.802 15.0762 14.8305 15.046C14.859 15.0175 14.8905 14.986 14.93 14.9785C14.9715 14.958 15.0105 14.9365 15.0495 14.9365L15.1095 14.9265L15.5 14.916C16.4231 14.9059 17.3462 14.9259 18.268 14.976C19.224 15.0275 20.1778 15.1143 21.1275 15.236L21.2295 15.2465L21.2895 15.257C21.3591 15.2742 21.4218 15.3125 21.469 15.3665C21.5495 15.447 21.589 15.5565 21.5785 15.666C21.5785 15.7075 21.5685 15.7465 21.55 15.7755C21.5295 15.8175 21.5085 15.846 21.49 15.877C21.4695 15.9055 21.4405 15.927 21.3995 15.9585C21.371 15.9765 21.329 15.9865 21.29 15.997L21.23 16.0075H21.2015L21.1405 16.068ZM21.1405 14.2605C21.109 14.2605 21.109 14.2605 21.078 14.255L20.708 14.203C19.7795 14.0748 18.8467 13.9792 17.9115 13.9165C16.9761 13.8565 16.0389 13.8278 15.1015 13.8305H15.07L15.0105 13.82C14.9724 13.8097 14.9356 13.7949 14.901 13.776C14.8507 13.7434 14.8077 13.7006 14.7749 13.6504C14.7421 13.6002 14.7202 13.5437 14.7105 13.4845C14.7105 13.4425 14.7105 13.403 14.721 13.3645C14.7295 13.3249 14.7427 13.2864 14.7605 13.25C14.7832 13.2146 14.8102 13.1822 14.841 13.1535C14.8938 13.1034 14.9596 13.0692 15.031 13.055C15.0609 13.0475 15.0917 13.044 15.1225 13.0445H15.5025C17.3892 13.0543 19.273 13.1943 21.1405 13.4635L21.239 13.477C21.2705 13.4825 21.281 13.4825 21.299 13.4895C21.3381 13.5019 21.375 13.5203 21.4085 13.544C21.4505 13.5655 21.479 13.594 21.5 13.6255C21.5205 13.656 21.5395 13.693 21.56 13.732C21.5791 13.7834 21.5871 13.8382 21.5836 13.8929C21.5801 13.9476 21.565 14.001 21.5395 14.0495C21.522 14.0865 21.4981 14.1202 21.469 14.149C21.4203 14.199 21.3578 14.2333 21.2895 14.2475C21.271 14.2555 21.261 14.2555 21.2295 14.258L21.201 14.2605H21.1405ZM21.1405 12.4535C21.109 12.4535 21.109 12.4535 21.078 12.448L20.708 12.388C19.781 12.2375 18.848 12.1272 17.9115 12.0575C16.9766 11.9804 16.0394 11.9335 15.1015 11.917H15.07L15 11.909C14.9605 11.899 14.9245 11.8775 14.8905 11.8595C14.854 11.839 14.825 11.8075 14.7965 11.779C14.773 11.7475 14.7525 11.7085 14.7345 11.6805C14.7207 11.6408 14.7112 11.5997 14.706 11.558C14.7006 11.4979 14.7084 11.4373 14.7291 11.3806C14.7498 11.3239 14.7827 11.2725 14.8255 11.23C14.8782 11.1802 14.943 11.145 15.0135 11.128C15.0415 11.1205 15.073 11.1205 15.1015 11.1205C16.1867 11.1334 17.2709 11.19 18.3515 11.29C19.276 11.368 20.198 11.4875 21.115 11.6385L21.2065 11.649C21.2325 11.649 21.24 11.649 21.266 11.6565C21.308 11.67 21.3395 11.688 21.3755 11.7085C21.407 11.727 21.4355 11.7585 21.4595 11.787C21.519 11.8775 21.5475 11.987 21.5295 12.097C21.52 12.1357 21.5059 12.1731 21.4875 12.2085C21.4659 12.2424 21.4387 12.2723 21.407 12.297C21.3571 12.3461 21.2952 12.3813 21.2275 12.399H21.136L21.1405 12.4535ZM10.6925 12.112C10.5902 12.1119 10.4917 12.0728 10.4172 12.0027C10.3427 11.9326 10.2977 11.8366 10.2915 11.7345C10.2915 11.695 10.3015 11.6585 10.312 11.625C10.3231 11.5787 10.3435 11.5351 10.372 11.497C10.4013 11.4548 10.4385 11.4186 10.4815 11.3905C10.5313 11.3604 10.5859 11.3393 10.643 11.328L10.963 11.2995C11.401 11.261 11.833 11.2295 12.263 11.2035H12.3015C12.372 11.206 12.4315 11.219 12.4815 11.25C12.6115 11.318 12.692 11.4535 12.692 11.5965C12.69 11.6328 12.6831 11.6686 12.6715 11.703C12.6615 11.7486 12.6409 11.7912 12.6115 11.8275C12.583 11.8795 12.541 11.908 12.502 11.9395C12.452 11.9687 12.3974 11.989 12.3405 11.9995C12.2725 12.01 12.2025 12.01 12.132 12.0175C12.0405 12.028 11.942 12.028 11.8405 12.039L11.062 12.0985L10.872 12.12C10.8325 12.13 10.7915 12.13 10.7415 12.13L10.6925 12.112ZM21.13 10.646L21.068 10.638L20.7005 10.5725C19.7682 10.4158 18.8311 10.2899 17.8905 10.195C16.956 10.1047 16.0189 10.0447 15.0805 10.015H15.049L14.989 10.0025C14.9508 9.99141 14.914 9.9758 14.8795 9.956C14.847 9.93246 14.8175 9.9051 14.7915 9.8745C14.7513 9.82965 14.7228 9.77554 14.7086 9.717C14.6944 9.65846 14.6948 9.59731 14.71 9.539C14.7205 9.497 14.7385 9.4585 14.76 9.419C14.7805 9.377 14.8095 9.3485 14.8405 9.3175C14.8936 9.26766 14.9593 9.23325 15.0305 9.218C15.059 9.2075 15.0905 9.2075 15.119 9.2075L15.5095 9.218C16.439 9.2575 17.358 9.3175 18.2775 9.4185C19.238 9.517 20.186 9.658 21.137 9.817L21.2355 9.827C21.267 9.827 21.2775 9.827 21.2955 9.8375C21.3375 9.8475 21.376 9.869 21.4075 9.887C21.4514 9.92105 21.4881 9.96346 21.5154 10.0118C21.5428 10.0601 21.5603 10.1134 21.567 10.1685C21.577 10.207 21.567 10.2465 21.5565 10.2885C21.5545 10.3281 21.5407 10.3662 21.517 10.398C21.4964 10.4302 21.4729 10.4604 21.447 10.4885C21.3948 10.5376 21.3282 10.5686 21.257 10.577L21.1995 10.5875H21.168L21.13 10.646ZM10.682 10.1325C10.6246 10.1326 10.5678 10.1203 10.5155 10.0965C10.4695 10.0726 10.4275 10.0418 10.391 10.005C10.334 9.94217 10.2985 9.86285 10.2895 9.7785C10.2796 9.67623 10.3099 9.57411 10.374 9.49383C10.4382 9.41355 10.5311 9.36142 10.633 9.3485C10.7395 9.341 10.8445 9.341 10.9485 9.3305C11.383 9.299 11.816 9.281 12.248 9.2605H12.282C12.342 9.2705 12.402 9.281 12.4515 9.31C12.571 9.38 12.652 9.5205 12.652 9.6585C12.651 9.69676 12.6437 9.73459 12.6305 9.7705C12.613 9.81641 12.5904 9.86019 12.563 9.901C12.5302 9.9427 12.4883 9.97638 12.4405 9.9995C12.3898 10.0316 12.331 10.0487 12.271 10.049C12.201 10.0595 12.1305 10.0595 12.0495 10.0595L11.75 10.08C11.482 10.098 11.2215 10.1085 10.9605 10.1295L10.7605 10.14C10.7105 10.1505 10.672 10.1505 10.63 10.1505L10.682 10.1325Z" fill="white"/>
<defs>
<linearGradient id="paint0_linear_18_15344" x1="15.5" y1="0" x2="15.5" y2="31" gradientUnits="userSpaceOnUse">
<stop stop-color="white" stop-opacity="0.5"/>
<stop offset="1" stop-color="white"/>
</linearGradient>
<linearGradient id="paint1_linear_18_15344" x1="15.5" y1="0" x2="15.5" y2="31" gradientUnits="userSpaceOnUse">
<stop stop-color="white" stop-opacity="0.5"/>
<stop offset="1" stop-color="white"/>
</linearGradient>
</defs>
</svg>
