<svg width="31" height="31" viewBox="0 0 31 31" fill="none" xmlns="http://www.w3.org/2000/svg">
<rect x="0.5" y="0.5" width="30" height="30" rx="15" fill="url(#paint0_linear_18_15344)" style="mix-blend-mode:overlay"/>
<rect x="0.5" y="0.5" width="30" height="30" rx="15" stroke="url(#paint1_linear_18_15344)" style="mix-blend-mode:overlay"/>
<path d="M22.8513 17.003C23.3418 16.9965 23.8343 17.0205 24.3248 16.9915C24.9648 16.9335 25.4888 16.3475 25.4938 15.705C25.5058 13.987 25.4928 12.27 25.4993 10.552C25.5033 10.278 25.4828 9.995 25.3578 9.7465C25.1403 9.2655 24.6053 8.9765 24.0883 9.0015C21.7678 9.0025 19.4468 9.001 17.1263 9.0025C16.5278 8.9785 15.9413 9.3975 15.8003 9.9885C15.7113 10.4165 15.7683 10.858 15.7548 11.291M22.8513 17.003C22.5513 17.003 22.2513 17.0045 21.9513 17.0085C20.5288 17.0165 19.1063 17.006 17.6848 17.0125C17.4528 16.9995 17.3313 17.232 17.1783 17.3675C16.7033 17.836 16.2573 18.337 15.7553 18.7775C15.7313 16.599 15.7428 14.419 15.7498 12.2395C15.7546 11.9235 15.7563 11.607 15.7548 11.291M22.8513 17.003C22.8233 18.605 22.8488 20.208 22.8383 21.8095C22.8628 22.1995 22.5433 22.5505 22.1683 22.605C21.8608 22.655 21.6013 22.449 21.3348 22.335C20.4068 21.874 19.3613 21.6835 18.3313 21.7165C16.9173 21.7805 15.5463 22.3495 14.4448 23.23C14.1278 23.0385 13.8428 22.798 13.5228 22.6115C12.3703 21.9405 11.0163 21.5815 9.68276 21.7205C8.77776 21.787 7.91226 22.1105 7.11326 22.5295C6.62426 22.807 5.96576 22.3645 6.00526 21.8095C5.99776 18.727 6.00526 15.6435 6.00126 12.561C5.98976 12.2685 6.05376 11.9275 6.32276 11.7625C8.32976 10.6495 10.8178 10.4725 12.9698 11.2545C13.4753 11.4005 13.9283 11.6745 14.4023 11.896C14.8543 11.7125 15.2873 11.4545 15.7548 11.291M14.4023 12.641C14.4248 15.3785 14.4353 19.3395 14.4448 22.077M7.54826 14.41H12.8298M7.54826 19.1285H9.30876M7.54826 15.59H9.89576M7.54826 16.77H12.8298M11.0698 17.949H12.8298M7.54826 17.949H9.89576M11.0693 15.59H12.8298M10.4828 19.1285H12.8298M18.1118 10.872H23.3933M18.1118 12.0515H20.4593M18.1118 13.231H23.3933M21.6328 14.4105H23.3933M18.1118 14.4105H20.4593M21.6328 12.0515H23.3933" stroke="white" stroke-linecap="round" stroke-linejoin="round"/>
<defs>
<linearGradient id="paint0_linear_18_15344" x1="15.5" y1="0" x2="15.5" y2="31" gradientUnits="userSpaceOnUse">
<stop stop-color="white" stop-opacity="0.5"/>
<stop offset="1" stop-color="white"/>
</linearGradient>
<linearGradient id="paint1_linear_18_15344" x1="15.5" y1="0" x2="15.5" y2="31" gradientUnits="userSpaceOnUse">
<stop stop-color="white" stop-opacity="0.5"/>
<stop offset="1" stop-color="white"/>
</linearGradient>
</defs>
</svg>
