<svg width="31" height="31" viewBox="0 0 31 31" fill="none" xmlns="http://www.w3.org/2000/svg">
<rect x="0.5" y="0.5" width="30" height="30" rx="15" fill="url(#paint0_linear_18_15344)" style="mix-blend-mode:overlay"/>
<rect x="0.5" y="0.5" width="30" height="30" rx="15" stroke="url(#paint1_linear_18_15344)" style="mix-blend-mode:overlay"/>
<path d="M11.4346 7.14669C9.74821 7.61514 8.32726 8.77869 7.51529 10.3956C7.03123 11.3325 7 11.5138 7 12.9191C7.01561 14.2187 7.07807 14.5662 7.43721 15.3671C8.07742 16.7876 8.3741 18.7671 8.29603 20.9885C8.18673 23.5574 7.99935 23.4214 11.5908 23.4214C14.3233 23.4214 14.4014 23.4062 14.6356 23.0889C14.7762 22.9076 14.8855 22.4542 14.8855 22.1067C14.8855 21.2756 15.1197 21.1547 16.8061 21.1547C18.6799 21.1547 18.836 21.0036 18.9453 19.2507L19.0234 17.9209L19.5387 17.8C20.4444 17.5734 20.5068 17.1502 19.851 15.2009C19.5387 14.2791 19.2108 12.9645 19.1171 12.2694C18.8204 10.0329 17.3526 8.12892 15.3539 7.38847C14.3077 6.99558 12.434 6.87469 11.4346 7.14669ZM15.5257 7.90225C17.3526 8.74847 18.5706 10.5467 18.7892 12.7378C18.8673 13.4934 19.1015 14.4907 19.4138 15.2916C20.0071 16.848 19.9915 17.2409 19.3357 17.4071C18.758 17.5431 18.4769 17.9058 18.4769 18.4498C18.4769 18.8578 18.4457 18.8729 17.5868 18.9182C16.322 18.9787 16.2596 19.3414 17.5244 19.3414H18.4769V19.8551C18.4769 20.656 18.0553 20.8525 16.447 20.8525C14.7918 20.8525 14.5732 20.9885 14.4639 22.0009C14.417 22.4089 14.2765 22.8169 14.136 22.9227C13.8237 23.1645 9.38907 23.1947 8.93624 22.9529C8.65517 22.8169 8.63956 22.696 8.73324 21.2605C8.87378 19.2507 8.60833 17.4071 7.92127 15.488C7.24984 13.584 7.20299 12.1787 7.74951 10.864C8.40533 9.32269 9.35784 8.40092 10.9662 7.75114C12.2153 7.23736 14.2609 7.31292 15.5257 7.90225Z" fill="white"/>
<path d="M24.348 14.9289C24.2856 15.0347 24.4105 15.3369 24.6291 15.6089C25.363 16.5458 25.6597 17.3769 25.6597 18.5858C25.6597 19.8098 25.3942 20.5805 24.6447 21.5174C24.1919 22.0916 24.1607 22.2125 24.473 22.2125C24.8009 22.2125 25.6285 20.9129 25.9251 19.9609C26.2374 18.9031 26.1281 17.392 25.6753 16.4551C25.2225 15.5334 24.5042 14.7022 24.348 14.9289Z" fill="white"/>
<path d="M23.2863 15.9565C23.2238 16.0018 23.3956 16.3645 23.661 16.7725C24.4574 18.0116 24.4418 19.2507 23.6298 20.4142C23.1458 21.1245 23.1614 21.4871 23.661 21.0489C24.27 20.52 24.6135 19.6285 24.6292 18.5858C24.6448 17.7547 24.5667 17.4827 24.1607 16.7876C23.6923 15.9716 23.4737 15.7751 23.2863 15.9565Z" fill="white"/>
<path d="M22.2245 17.0445C22.2245 17.1049 22.365 17.4222 22.5368 17.7547C22.7085 18.0871 22.8491 18.4498 22.8491 18.5858C22.8491 18.7218 22.7085 19.0845 22.5368 19.4169C22.1776 20.0818 22.162 20.248 22.3806 20.248C22.7085 20.248 23.1614 19.2658 23.1614 18.5858C23.1614 18.1778 23.0365 17.7093 22.8491 17.4071C22.568 16.9689 22.2245 16.7573 22.2245 17.0445Z" fill="white"/>
<defs>
<linearGradient id="paint0_linear_18_15344" x1="15.5" y1="0" x2="15.5" y2="31" gradientUnits="userSpaceOnUse">
<stop stop-color="white" stop-opacity="0.5"/>
<stop offset="1" stop-color="white"/>
</linearGradient>
<linearGradient id="paint1_linear_18_15344" x1="15.5" y1="0" x2="15.5" y2="31" gradientUnits="userSpaceOnUse">
<stop stop-color="white" stop-opacity="0.5"/>
<stop offset="1" stop-color="white"/>
</linearGradient>
</defs>
</svg>
