<svg width="28" height="28" viewBox="0 0 28 28" fill="none" xmlns="http://www.w3.org/2000/svg">
<path d="M14 3C12.9391 3 11.9217 3.42143 11.1716 4.17157C10.4214 4.92172 10 5.93913 10 7C10 8.06087 10.4214 9.07828 11.1716 9.82843C11.9217 10.5786 12.9391 11 14 11C15.0609 11 16.0783 10.5786 16.8284 9.82843C17.5786 9.07828 18 8.06087 18 7C18 5.93913 17.5786 4.92172 16.8284 4.17157C16.0783 3.42143 15.0609 3 14 3ZM2 9.5C2 9.04037 2.09053 8.58525 2.26642 8.16061C2.44231 7.73597 2.70012 7.35013 3.02513 7.02513C3.35013 6.70012 3.73597 6.44231 4.16061 6.26642C4.58525 6.09053 5.04037 6 5.5 6C5.95963 6 6.41475 6.09053 6.83939 6.26642C7.26403 6.44231 7.64987 6.70012 7.97487 7.02513C8.29988 7.35013 8.55769 7.73597 8.73358 8.16061C8.90947 8.58525 9 9.04037 9 9.5C9 10.4283 8.63125 11.3185 7.97487 11.9749C7.3185 12.6313 6.42826 13 5.5 13C4.57174 13 3.6815 12.6313 3.02513 11.9749C2.36875 11.3185 2 10.4283 2 9.5ZM22.5 6C22.0404 6 21.5852 6.09053 21.1606 6.26642C20.736 6.44231 20.3501 6.70012 20.0251 7.02513C19.7001 7.35013 19.4423 7.73597 19.2664 8.16061C19.0905 8.58525 19 9.04037 19 9.5C19 9.95963 19.0905 10.4148 19.2664 10.8394C19.4423 11.264 19.7001 11.6499 20.0251 11.9749C20.3501 12.2999 20.736 12.5577 21.1606 12.7336C21.5852 12.9095 22.0404 13 22.5 13C23.4283 13 24.3185 12.6313 24.9749 11.9749C25.6313 11.3185 26 10.4283 26 9.5C26 8.57174 25.6313 7.6815 24.9749 7.02513C24.3185 6.36875 23.4283 6 22.5 6ZM10.75 13C10.2859 13 9.84075 13.1844 9.51256 13.5126C9.18437 13.8408 9 14.2859 9 14.75V20C8.99996 20.6973 9.14576 21.3869 9.42804 22.0244C9.71032 22.662 10.1228 23.2335 10.6391 23.7022C11.1553 24.1709 11.7639 24.5265 12.4257 24.746C13.0876 24.9655 13.788 25.0442 14.482 24.977C13.7663 24.0145 13.2917 22.8944 13.0982 21.7106C12.9046 20.5269 12.9977 19.3139 13.3696 18.1736C13.7415 17.0332 14.3813 15.9986 15.2356 15.1566C16.0898 14.3145 17.1334 13.6895 18.279 13.334C17.9802 13.1162 17.6198 12.9992 17.25 13H10.75ZM8 14.752L3.297 16.012C3.07498 16.0715 2.86686 16.1742 2.68453 16.3142C2.50221 16.4541 2.34924 16.6287 2.23437 16.8278C2.11949 17.0269 2.04497 17.2466 2.01505 17.4745C1.98514 17.7024 2.00041 17.934 2.06 18.156L2.901 21.295C3.09336 22.0135 3.4436 22.68 3.9262 23.246C4.40879 23.812 5.01159 24.2632 5.69066 24.5667C6.36973 24.8703 7.10796 25.0184 7.85155 25.0005C8.59514 24.9825 9.32537 24.7989 9.989 24.463C9.36293 23.9002 8.86229 23.2121 8.51962 22.4431C8.17694 21.6742 7.9999 20.8418 8 20V14.752ZM27 20.5C27 22.2239 26.3152 23.8772 25.0962 25.0962C23.8772 26.3152 22.2239 27 20.5 27C18.7761 27 17.1228 26.3152 15.9038 25.0962C14.6848 23.8772 14 22.2239 14 20.5C14 18.7761 14.6848 17.1228 15.9038 15.9038C17.1228 14.6848 18.7761 14 20.5 14C22.2239 14 23.8772 14.6848 25.0962 15.9038C26.3152 17.1228 27 18.7761 27 20.5ZM21 16.5C21 16.3674 20.9473 16.2402 20.8536 16.1464C20.7598 16.0527 20.6326 16 20.5 16C20.3674 16 20.2402 16.0527 20.1464 16.1464C20.0527 16.2402 20 16.3674 20 16.5V20H16.5C16.3674 20 16.2402 20.0527 16.1464 20.1464C16.0527 20.2402 16 20.3674 16 20.5C16 20.6326 16.0527 20.7598 16.1464 20.8536C16.2402 20.9473 16.3674 21 16.5 21H20V24.5C20 24.6326 20.0527 24.7598 20.1464 24.8536C20.2402 24.9473 20.3674 25 20.5 25C20.6326 25 20.7598 24.9473 20.8536 24.8536C20.9473 24.7598 21 24.6326 21 24.5V21H24.5C24.6326 21 24.7598 20.9473 24.8536 20.8536C24.9473 20.7598 25 20.6326 25 20.5C25 20.3674 24.9473 20.2402 24.8536 20.1464C24.7598 20.0527 24.6326 20 24.5 20H21V16.5Z" fill="white"/>
</svg>
