<svg width="70" height="70" viewBox="0 0 70 70" fill="none" xmlns="http://www.w3.org/2000/svg">
<g filter="url(#filter0_bddd_18_15408)">
<circle cx="35" cy="35" r="35" fill="url(#paint0_linear_18_15408)"/>
<circle cx="35" cy="35" r="34.5" stroke="url(#paint1_linear_18_15408)" style="mix-blend-mode:overlay"/>
</g>
<g filter="url(#filter1_f_18_15408)">
<circle cx="34.5" cy="35.5" r="32.5" fill="url(#paint2_linear_18_15408)"/>
</g>
<circle cx="35" cy="35" r="30" fill="url(#paint3_linear_18_15408)"/>
<circle cx="35" cy="35" r="30" stroke="url(#paint4_linear_18_15408)" style="mix-blend-mode:overlay"/>
<g filter="url(#filter2_f_18_15408)">
<circle cx="35" cy="35" r="22" fill="url(#paint5_linear_18_15408)" fill-opacity="0.7"/>
</g>
<g filter="url(#filter3_b_18_15408)">
<circle cx="35" cy="35" r="22" fill="white" fill-opacity="0.3" style="mix-blend-mode:overlay"/>
<circle cx="35" cy="35" r="21.5" stroke="url(#paint6_linear_18_15408)" style="mix-blend-mode:overlay"/>
</g>
<circle cx="35" cy="35" r="21.5" stroke="url(#paint7_linear_18_15408)"/>
<path d="M28.3594 44.3828C26.9629 44.3828 26.1523 43.5918 26.1523 42.2246V32.9082L24.8828 33.9824C24.6777 34.1484 24.4531 34.2949 24.1797 34.2949C23.6523 34.2949 23.3398 33.9141 23.3398 33.5137C23.3398 33.2891 23.4375 33.0547 23.6523 32.8789L33.8281 24.334C34.5605 23.7188 35.459 23.7188 36.1816 24.334L41.3184 28.6504V26.668C41.3184 26.2383 41.6016 25.9648 42.0215 25.9648H43.0664C43.4961 25.9648 43.7695 26.2383 43.7695 26.668V30.7109L46.3477 32.8789C46.5527 33.0547 46.6504 33.25 46.6504 33.543C46.6504 34.0117 46.2793 34.2949 45.8203 34.2949C45.5469 34.2949 45.3223 34.1484 45.127 33.9824L43.7695 32.8398V42.2246C43.7695 43.5918 42.959 44.3828 41.5723 44.3828H28.3594ZM37.8125 36.2676V42.8105H41.2402C41.8555 42.8105 42.1973 42.459 42.1973 41.8242V31.5215L35.3516 25.7793C35.1367 25.584 34.873 25.584 34.6582 25.7793L27.7246 31.5898V41.8242C27.7246 42.459 28.0664 42.8105 28.6914 42.8105H32.1777V36.2676C32.1777 35.8184 32.4707 35.5254 32.9297 35.5254H37.0703C37.5195 35.5254 37.8125 35.8184 37.8125 36.2676Z" fill="white"/>
<defs>
<filter id="filter0_bddd_18_15408" x="-20" y="-20" width="110" height="110" filterUnits="userSpaceOnUse" color-interpolation-filters="sRGB">
<feFlood flood-opacity="0" result="BackgroundImageFix"/>
<feGaussianBlur in="BackgroundImageFix" stdDeviation="10"/>
<feComposite in2="SourceAlpha" operator="in" result="effect1_backgroundBlur_18_15408"/>
<feColorMatrix in="SourceAlpha" type="matrix" values="0 0 0 0 0 0 0 0 0 0 0 0 0 0 0 0 0 0 127 0" result="hardAlpha"/>
<feOffset dy="10"/>
<feGaussianBlur stdDeviation="5"/>
<feComposite in2="hardAlpha" operator="out"/>
<feColorMatrix type="matrix" values="0 0 0 0 0 0 0 0 0 0 0 0 0 0 0 0 0 0 0.1 0"/>
<feBlend mode="normal" in2="effect1_backgroundBlur_18_15408" result="effect2_dropShadow_18_15408"/>
<feColorMatrix in="SourceAlpha" type="matrix" values="0 0 0 0 0 0 0 0 0 0 0 0 0 0 0 0 0 0 127 0" result="hardAlpha"/>
<feOffset dy="4"/>
<feGaussianBlur stdDeviation="2"/>
<feComposite in2="hardAlpha" operator="out"/>
<feColorMatrix type="matrix" values="0 0 0 0 0 0 0 0 0 0 0 0 0 0 0 0 0 0 0.05 0"/>
<feBlend mode="normal" in2="effect2_dropShadow_18_15408" result="effect3_dropShadow_18_15408"/>
<feColorMatrix in="SourceAlpha" type="matrix" values="0 0 0 0 0 0 0 0 0 0 0 0 0 0 0 0 0 0 127 0" result="hardAlpha"/>
<feOffset dy="1"/>
<feComposite in2="hardAlpha" operator="out"/>
<feColorMatrix type="matrix" values="0 0 0 0 0 0 0 0 0 0 0 0 0 0 0 0 0 0 0.05 0"/>
<feBlend mode="normal" in2="effect3_dropShadow_18_15408" result="effect4_dropShadow_18_15408"/>
<feBlend mode="normal" in="SourceGraphic" in2="effect4_dropShadow_18_15408" result="shape"/>
</filter>
<filter id="filter1_f_18_15408" x="0" y="1" width="69" height="69" filterUnits="userSpaceOnUse" color-interpolation-filters="sRGB">
<feFlood flood-opacity="0" result="BackgroundImageFix"/>
<feBlend mode="normal" in="SourceGraphic" in2="BackgroundImageFix" result="shape"/>
<feGaussianBlur stdDeviation="1" result="effect1_foregroundBlur_18_15408"/>
</filter>
<filter id="filter2_f_18_15408" x="3" y="3" width="64" height="64" filterUnits="userSpaceOnUse" color-interpolation-filters="sRGB">
<feFlood flood-opacity="0" result="BackgroundImageFix"/>
<feBlend mode="normal" in="SourceGraphic" in2="BackgroundImageFix" result="shape"/>
<feGaussianBlur stdDeviation="5" result="effect1_foregroundBlur_18_15408"/>
</filter>
<filter id="filter3_b_18_15408" x="3" y="3" width="64" height="64" filterUnits="userSpaceOnUse" color-interpolation-filters="sRGB">
<feFlood flood-opacity="0" result="BackgroundImageFix"/>
<feGaussianBlur in="BackgroundImageFix" stdDeviation="5"/>
<feComposite in2="SourceAlpha" operator="in" result="effect1_backgroundBlur_18_15408"/>
<feBlend mode="normal" in="SourceGraphic" in2="effect1_backgroundBlur_18_15408" result="shape"/>
</filter>
<linearGradient id="paint0_linear_18_15408" x1="35" y1="0" x2="35" y2="74.5" gradientUnits="userSpaceOnUse">
<stop offset="0.149219" stop-color="#1861B4"/>
<stop offset="1" stop-color="#0E132A"/>
</linearGradient>
<linearGradient id="paint1_linear_18_15408" x1="35" y1="0" x2="35" y2="73" gradientUnits="userSpaceOnUse">
<stop stop-color="white"/>
<stop offset="1" stop-color="white" stop-opacity="0.07"/>
</linearGradient>
<linearGradient id="paint2_linear_18_15408" x1="34.5" y1="3" x2="34" y2="64.5" gradientUnits="userSpaceOnUse">
<stop stop-color="#009DFF"/>
<stop offset="1" stop-color="#0E132B" stop-opacity="0"/>
</linearGradient>
<linearGradient id="paint3_linear_18_15408" x1="35" y1="5" x2="35" y2="61" gradientUnits="userSpaceOnUse">
<stop offset="0.115379" stop-color="#191942"/>
<stop offset="1" stop-color="#10142E"/>
</linearGradient>
<linearGradient id="paint4_linear_18_15408" x1="35" y1="5" x2="35" y2="65" gradientUnits="userSpaceOnUse">
<stop stop-color="white"/>
<stop offset="1" stop-color="white" stop-opacity="0"/>
</linearGradient>
<linearGradient id="paint5_linear_18_15408" x1="41.05" y1="66.5897" x2="41.6286" y2="13.0003" gradientUnits="userSpaceOnUse">
<stop offset="0.481481" stop-color="#026DFF" stop-opacity="0"/>
<stop offset="0.736111" stop-color="#026DFF"/>
<stop offset="0.949074" stop-color="#00D7FF"/>
</linearGradient>
<linearGradient id="paint6_linear_18_15408" x1="35" y1="13" x2="35" y2="57" gradientUnits="userSpaceOnUse">
<stop stop-color="white"/>
<stop offset="0.284905" stop-color="white" stop-opacity="0"/>
<stop offset="0.828955" stop-color="white" stop-opacity="0"/>
<stop offset="1" stop-color="white"/>
</linearGradient>
<linearGradient id="paint7_linear_18_15408" x1="38.85" y1="63.7692" x2="38.2714" y2="15.8209" gradientUnits="userSpaceOnUse">
<stop offset="0.856716" stop-color="#2737CF" stop-opacity="0"/>
<stop offset="1" stop-color="#BDFCFE"/>
</linearGradient>
</defs>
</svg>
